# xmcd CD database file
#
# Track frame offsets:
#	150
#	13716
#	26183
#	39954
#	53322
#	66359
#	79720
#	94065
#	109011
#	122817
#	143962
#	169836
#	242438
#	256235
#	286153
#	314626
#
# Disc length: 4629 seconds
#
# Revision: 1
# Processed by: cddbd v1.5.2PL0 Copyright (c) Steve Scherf et al.
# Submitted via: CDex 1.70beta2
#
DISCID=d4121310
DTITLE=Wardell Gray - D1 - The Wardell Gray Story - Blue Lou - Proper
DYEAR=1945
DGENRE=Swing
TTITLE0=At the El Grotto (Earl Hines and His Orchestra)
TTITLE1=Straight Life (Earl Hines and His Orchestra)
TTITLE2=Let's Get Started (Earl Hines and His Orchestra)
TTITLE3=Bamby (Earl Hines and His Orchestra)
TTITLE4=Blue Keys (Earl Hines and His Orchestra)
TTITLE5=Dell's Bells
TTITLE6=One for Prez
TTITLE7=The Man I Love
TTITLE8=Easy Swing
TTITLE9=The Great Lie, pts 1 and 2
TTITLE10=Blue Lou (with Erroll Garner)
TTITLE11=Backbreaker (with Barney Kessel)
TTITLE12=She's Got Blues for Sale (Billy Eckstine and His Band)
TTITLE13=Groovin' High (Howard McGhee Sextet)
TTITLE14=Hot House (Howard McGhee Sextet)
TTITLE15=Bebop (Howard McGhee Sextet)
EXTD=YEAR: 1945
EXTT0=
EXTT1=
EXTT2=
EXTT3=
EXTT4=
EXTT5=
EXTT6=
EXTT7=
EXTT8=
EXTT9=
EXTT10=
EXTT11=
EXTT12=
EXTT13=
EXTT14=
EXTT15=
PLAYORDER=
